<svg width="1440" height="1096" viewBox="0 0 1440 1096" fill="none" xmlns="http://www.w3.org/2000/svg">
<path opacity="0.5" fill-rule="evenodd" clip-rule="evenodd" d="M441.724 975.593C404.571 1054.02 365.17 1087.17 323.643 1093.05C282.046 1098.94 238.01 1077.53 191.439 1046.01C169.722 1031.31 147.496 1014.44 124.747 997.177L124.744 997.175C123.122 995.944 121.497 994.711 119.87 993.477C95.4243 974.936 70.3814 956.088 44.7578 939.14C-6.47658 905.252 -60.1288 878.896 -116.133 877.797L-116.162 879.297C-60.5949 880.387 -7.2384 906.547 43.9303 940.391C69.5082 957.309 94.5154 976.129 118.963 994.672C120.595 995.91 122.224 997.146 123.851 998.381L123.86 998.388C146.597 1015.64 168.85 1032.53 190.598 1047.25C237.176 1078.77 281.641 1100.51 323.853 1094.53C366.134 1088.55 405.85 1054.82 443.08 976.235C480.234 897.808 522.159 843.502 568.73 805.583C615.299 767.666 666.553 746.102 722.417 733.216C778.294 720.328 838.766 716.125 903.775 712.921C913.97 712.419 924.276 711.941 934.692 711.458C990.685 708.862 1049.88 706.118 1112.18 698.609C1230.58 684.339 1343.92 608.484 1437.45 519.574C1530.99 430.651 1604.81 328.579 1644.18 261.705L1642.89 260.944C1603.58 327.715 1529.85 429.672 1436.42 518.487C1342.98 607.316 1229.93 682.908 1112 697.12C1049.76 704.621 990.627 707.363 934.635 709.959L934.63 709.959C924.212 710.442 913.902 710.92 903.702 711.423C838.693 714.627 778.101 718.833 722.08 731.755C666.046 744.68 614.568 766.327 567.783 804.419C521.001 842.51 478.952 897.013 441.724 975.593ZM423.449 923.493C386.296 1001.92 346.896 1035.07 305.368 1040.95C263.771 1046.84 219.735 1025.43 173.165 993.905C151.451 979.209 129.23 962.346 106.485 945.086L106.481 945.084L106.478 945.081L106.475 945.079L106.472 945.077L106.469 945.075C104.847 943.844 103.223 942.611 101.595 941.377C77.1498 922.836 52.1068 903.987 26.4832 887.04C-24.7511 853.152 -78.4034 826.796 -134.407 825.697L-134.437 827.197C-78.8694 828.287 -25.5129 854.447 25.6557 888.291C51.2337 905.208 76.2408 924.029 100.689 942.572C102.32 943.809 103.95 945.046 105.576 946.28L105.585 946.287L105.592 946.292C128.326 963.544 150.577 980.429 172.324 995.148C218.902 1026.67 263.367 1048.41 305.578 1042.43C347.859 1036.45 387.576 1002.72 424.805 924.135C461.96 845.708 503.884 791.402 550.456 753.483C597.024 715.565 648.278 694.002 704.143 681.116C760.02 668.228 820.492 664.025 885.501 660.821C895.695 660.319 906.001 659.841 916.418 659.358C972.41 656.762 1031.6 654.017 1093.9 646.509C1212.31 632.239 1325.65 556.384 1419.18 467.474C1512.72 378.551 1586.54 276.479 1625.91 209.605L1624.62 208.844C1585.31 275.615 1511.57 377.572 1418.14 466.387C1324.7 555.216 1211.65 630.808 1093.72 645.02C1031.48 652.521 972.353 655.263 916.361 657.859L916.356 657.859C905.937 658.342 895.628 658.82 885.427 659.323C820.419 662.527 759.827 666.733 703.805 679.655C647.771 692.579 596.293 714.226 549.509 752.319C502.727 790.41 460.677 844.912 423.449 923.493ZM405.175 871.392C368.022 949.815 328.622 982.967 287.094 988.847C245.497 994.737 201.461 973.326 154.89 941.805C133.174 927.107 110.949 910.242 88.201 892.979L88.1995 892.978L88.1979 892.977L88.1952 892.975L85.4595 890.899L83.3211 889.277C58.8756 870.736 33.8327 851.887 8.20906 834.939C-43.0253 801.052 -96.6775 774.696 -152.681 773.597L-152.711 775.097C-97.1436 776.187 -43.7871 802.347 7.38156 836.191C32.9595 853.108 57.9667 871.929 82.4146 890.472L85.4217 892.753L87.3023 894.18L87.3114 894.187L87.3187 894.193L87.3246 894.197L87.3278 894.2L87.3294 894.201C110.06 911.45 132.307 928.331 154.05 943.048C200.628 974.573 245.092 996.309 287.304 990.332C329.585 984.346 369.302 950.618 406.531 872.035C443.686 793.608 485.61 739.302 532.181 701.382C578.75 663.465 630.004 641.902 685.868 629.016C741.746 616.128 802.218 611.925 867.227 608.721C877.421 608.218 887.727 607.741 898.144 607.258C954.136 604.662 1013.33 601.917 1075.63 594.409C1194.04 580.139 1307.38 504.284 1400.9 415.374C1494.45 326.451 1568.27 224.379 1607.63 157.505L1606.34 156.744C1567.03 223.515 1493.3 325.472 1399.87 414.287C1306.43 503.116 1193.38 578.707 1075.45 592.92C1013.21 600.421 954.079 603.163 898.086 605.759L898.051 605.76C887.643 606.243 877.344 606.72 867.153 607.223C802.145 610.426 741.552 614.633 685.531 627.555C629.497 640.479 578.019 662.126 531.234 700.219C484.453 738.31 442.403 792.812 405.175 871.392ZM268.819 936.747C310.347 930.867 349.747 897.715 386.9 819.292C424.128 740.712 466.178 686.21 512.96 648.119C559.744 610.026 611.222 588.379 667.256 575.454C723.277 562.533 783.87 558.326 848.878 555.122C859.08 554.62 869.392 554.142 879.812 553.658C935.804 551.062 994.935 548.321 1057.17 540.82C1175.1 526.607 1288.15 451.015 1381.59 362.187C1475.02 273.372 1548.76 171.414 1588.07 104.643L1589.36 105.404C1549.99 172.279 1476.17 274.35 1382.63 363.274C1289.1 452.183 1175.76 528.039 1057.35 542.309C995.055 549.817 935.861 552.562 879.869 555.158C869.452 555.64 859.146 556.118 848.952 556.621C783.943 559.824 723.471 564.027 667.594 576.916C611.73 589.801 560.475 611.365 513.907 649.282C467.335 687.201 425.411 741.508 388.256 819.934C351.027 898.518 311.31 932.246 269.029 938.232C226.818 944.209 182.353 922.473 135.775 890.947C114.028 876.228 91.7777 859.344 69.0433 842.092L69.037 842.087L69.0275 842.08L66.6034 840.24L64.1398 838.371C39.6919 819.829 14.6847 801.008 -10.8932 784.09C-62.0619 750.246 -115.418 724.086 -170.986 722.997L-170.956 721.497C-114.952 722.595 -61.3001 748.952 -10.0658 782.839C15.5579 799.787 40.6008 818.635 65.0463 837.176C66.6736 838.411 68.2984 839.644 69.9204 840.875L69.9235 840.877L69.9267 840.879L69.9298 840.881L69.9329 840.884C92.6792 858.145 114.901 875.008 136.616 889.705C183.186 921.226 227.222 942.637 268.819 936.747ZM368.625 767.192C331.472 845.615 292.072 878.767 250.544 884.647C208.947 890.536 164.911 869.126 118.341 837.605C96.6251 822.907 74.4015 806.043 51.6539 788.781L51.6508 788.778L51.6477 788.776L51.6455 788.774L47.899 785.932L46.7713 785.076C22.3259 766.535 -2.71706 747.687 -28.3407 730.739C-79.575 696.852 -133.227 670.495 -189.231 669.397L-189.261 670.896C-133.693 671.986 -80.3368 698.146 -29.1682 731.99C-3.59018 748.908 21.4169 767.729 45.8648 786.271C47.4966 787.509 49.1258 788.745 50.7526 789.98L50.7611 789.987L50.7674 789.991C73.5022 807.243 95.753 824.128 117.5 838.847C164.078 870.373 208.543 892.109 250.754 886.132C293.035 880.145 332.752 846.418 369.981 767.834C407.136 689.408 449.06 635.101 495.632 597.182C542.2 559.265 593.455 537.701 649.319 524.816C705.196 511.927 765.668 507.724 830.677 504.521C840.872 504.018 851.177 503.54 861.594 503.057L861.595 503.057C917.587 500.461 976.78 497.717 1039.08 490.209C1157.49 475.939 1270.83 400.083 1364.35 311.174C1457.9 222.25 1531.72 120.179 1571.08 53.3042L1569.79 52.5433C1530.48 119.314 1456.75 221.272 1363.32 310.087C1269.88 398.915 1156.83 474.507 1038.9 488.72C976.66 496.221 917.529 498.962 861.537 501.558L861.501 501.56C851.093 502.043 840.794 502.52 830.603 503.022C765.595 506.226 705.003 510.433 648.982 523.354C592.947 536.279 541.469 557.926 494.685 596.019C447.903 634.109 405.853 688.612 368.625 767.192ZM232.27 832.546C273.797 826.667 313.198 793.515 350.351 715.092C387.579 636.512 429.628 582.009 476.41 543.918C523.195 505.826 574.673 484.179 630.707 471.254C686.728 458.332 747.321 454.126 812.329 450.922C822.531 450.419 832.842 449.941 843.262 449.458C899.255 446.862 958.386 444.12 1020.63 436.619C1138.56 422.407 1251.6 346.815 1345.05 257.986C1438.47 169.172 1512.21 67.2141 1551.52 0.443006L1552.81 1.20393C1513.44 68.0785 1439.62 170.15 1346.08 259.073C1252.55 347.983 1139.21 423.838 1020.8 438.109C958.506 445.617 899.312 448.361 843.32 450.957C832.903 451.44 822.597 451.918 812.403 452.42C747.393 455.624 686.921 459.827 631.044 472.716C575.18 485.601 523.926 507.165 477.357 545.082C430.786 583.001 388.861 637.307 351.707 715.734C314.477 794.318 274.761 828.045 232.48 834.032C190.268 840.008 145.804 818.272 99.2255 786.747C77.4789 772.028 55.2284 755.143 32.4939 737.891L32.4876 737.887L32.4781 737.88L32.2893 737.736C30.7252 736.549 29.159 735.361 27.5904 734.171C3.14249 715.628 -21.8646 696.808 -47.4426 679.89C-98.6113 646.046 -151.968 619.886 -207.535 618.796L-207.506 617.296C-151.502 618.395 -97.8495 644.752 -46.6151 678.639C-20.9915 695.587 4.05143 714.435 28.4969 732.976L30.9161 734.811L33.371 736.674L33.3742 736.676L33.3773 736.679C56.1257 753.941 78.35 770.806 100.066 785.505C146.637 817.025 190.673 838.436 232.27 832.546Z" fill="url(#paint0_linear)"/>
<defs>
<linearGradient id="paint0_linear" x1="1520.05" y1="657.727" x2="100.699" y2="929.809" gradientUnits="userSpaceOnUse">
<stop stop-color="#298A91"/>
<stop offset="0.453125" stop-color="#1838EB"/>
<stop offset="1" stop-color="#298A91"/>
</linearGradient>
</defs>
</svg>
