<svg width="1440" height="1222" viewBox="0 0 1440 1222" fill="none" xmlns="http://www.w3.org/2000/svg">
<path opacity="0.5" fill-rule="evenodd" clip-rule="evenodd" d="M1175.44 146.353C1226.91 76.4823 1271.92 51.4769 1313.81 53.6472C1355.76 55.8211 1394.89 85.2581 1434.57 125.103C1453.08 143.684 1471.67 164.489 1490.7 185.784L1490.7 185.787C1492.06 187.305 1493.42 188.826 1494.78 190.349C1515.23 213.223 1536.2 236.512 1558.11 258.047C1601.92 301.107 1649.54 337.238 1704.3 349.026L1704.62 347.559C1650.28 335.863 1602.92 299.982 1559.16 256.978C1537.29 235.481 1516.35 212.225 1495.9 189.349C1494.53 187.822 1493.17 186.297 1491.81 184.774L1491.8 184.766C1472.78 163.482 1454.17 142.652 1435.64 124.044C1395.95 84.1933 1356.46 54.3553 1313.89 52.1492C1271.24 49.9396 1225.81 75.4494 1174.24 145.463C1122.77 215.337 1071.23 260.624 1018.27 288.937C965.309 317.248 910.877 328.613 853.58 330.577C796.269 332.542 736.109 325.103 671.687 315.815C661.585 314.359 651.378 312.857 641.061 311.339C585.606 303.179 526.98 294.553 464.395 290.009C345.444 281.372 219.69 334.153 110.886 403.535C2.06387 472.929 -89.9133 558.999 -141.344 617.111L-140.221 618.105C-88.8697 560.083 3.00336 474.109 111.692 404.8C220.398 335.48 345.815 282.903 464.286 291.505C526.811 296.045 585.375 304.662 640.831 312.821L640.836 312.822C651.154 314.34 661.365 315.843 671.473 317.3C735.894 326.587 796.173 334.046 853.631 332.076C911.103 330.106 965.771 318.703 1018.98 290.26C1072.18 261.819 1123.88 216.363 1175.44 146.353ZM1183.42 200.986C1234.88 131.116 1279.9 106.11 1321.78 108.281C1363.74 110.454 1402.87 139.891 1442.55 179.736C1461.05 198.314 1479.64 219.115 1498.66 240.407L1498.66 240.409L1498.67 240.412L1498.67 240.415L1498.67 240.418L1498.67 240.42L1500.45 242.403L1502.75 244.982C1523.2 267.856 1544.18 291.146 1566.09 312.681C1609.89 355.74 1657.52 391.871 1712.28 403.659L1712.59 402.193C1658.26 390.496 1610.89 354.616 1567.14 311.611C1545.27 290.114 1524.32 266.858 1503.87 243.983C1502.5 242.456 1501.14 240.931 1499.78 239.408L1499.77 239.399L1499.77 239.394C1480.75 218.112 1462.14 197.284 1443.61 178.678C1403.92 138.827 1364.43 108.989 1321.86 106.783C1279.21 104.573 1233.78 130.083 1182.21 200.097C1130.74 269.97 1079.21 315.257 1026.24 343.57C973.283 371.882 918.851 383.246 861.554 385.21C804.243 387.175 744.083 379.736 679.661 370.449C669.559 368.992 659.352 367.49 649.035 365.972C593.58 357.813 534.953 349.186 472.368 344.642C353.417 336.005 227.664 388.786 118.859 458.169C10.0377 527.562 -81.9395 613.633 -133.37 671.744L-132.247 672.738C-80.8959 614.717 10.9771 528.742 119.666 459.433C228.372 390.114 353.788 337.536 472.26 346.138C534.785 350.678 593.349 359.295 648.805 367.455L648.809 367.455C659.128 368.974 669.339 370.476 679.447 371.933C743.868 381.221 804.147 388.679 861.605 386.709C919.077 384.739 973.744 373.336 1026.95 344.893C1080.15 316.452 1131.85 270.997 1183.42 200.986ZM1191.39 255.619C1242.86 185.749 1287.87 160.744 1329.75 162.914C1371.71 165.088 1410.84 194.525 1450.52 234.37C1469.03 252.949 1487.61 273.752 1506.64 295.046L1506.64 295.047L1506.64 295.049L1506.65 295.051L1506.65 295.054L1508.26 296.859L1510.73 299.616C1531.17 322.489 1552.15 345.779 1574.06 367.314C1617.87 410.374 1665.49 446.504 1720.25 458.292L1720.57 456.826C1666.23 445.13 1618.86 409.249 1575.11 366.244C1553.24 344.747 1532.29 321.492 1511.84 298.616L1509.35 295.828L1507.76 294.041L1507.75 294.033L1507.74 294.027C1488.73 272.746 1470.12 251.917 1451.58 233.311C1411.9 193.46 1372.41 163.622 1329.83 161.416C1287.19 159.206 1241.75 184.716 1190.18 254.73C1138.72 324.603 1087.18 369.89 1034.22 398.203C981.256 426.515 926.824 437.879 869.527 439.844C812.216 441.808 752.057 434.369 687.635 425.082C677.532 423.625 667.325 422.124 657.008 420.606C601.553 412.446 542.927 403.82 480.342 399.275C361.391 390.638 235.637 443.419 126.833 512.802C18.0111 582.195 -73.966 668.266 -125.397 726.378L-124.273 727.372C-72.9224 669.35 18.9506 583.375 127.639 514.067C236.345 444.747 361.762 392.169 480.233 400.771C542.758 405.311 601.323 413.928 656.778 422.088C667.098 423.606 677.31 425.109 687.421 426.567C751.842 435.854 812.12 443.313 869.579 441.343C927.05 439.372 981.718 427.969 1034.92 399.526C1088.13 371.085 1139.82 325.63 1191.39 255.619ZM1337.73 217.547C1295.84 215.377 1250.83 240.382 1199.37 310.253C1147.8 380.263 1096.1 425.719 1042.9 454.16C989.692 482.603 935.024 494.006 877.553 495.976C820.094 497.946 759.816 490.487 695.395 481.2C685.296 479.744 675.095 478.243 664.787 476.727L664.752 476.721C609.297 468.562 550.732 459.945 488.207 455.405C369.736 446.803 244.319 499.381 135.613 568.7C26.9247 638.009 -64.9483 723.983 -116.299 782.005L-117.423 781.011C-65.992 722.899 25.9852 636.829 134.807 567.435C243.611 498.053 369.365 445.272 488.316 453.909C550.901 458.453 609.527 467.079 664.982 475.239L664.983 475.239C675.299 476.757 685.506 478.259 695.609 479.715C760.031 489.003 820.19 496.442 877.501 494.477C934.798 492.513 989.23 481.149 1042.19 452.837C1095.15 424.524 1146.69 379.237 1198.16 309.363C1249.73 239.349 1295.16 213.84 1337.81 216.049C1380.38 218.255 1419.87 248.093 1459.56 287.945C1478.09 306.551 1496.7 327.379 1515.72 348.661L1515.72 348.666L1515.73 348.674L1516.76 349.834L1519.82 353.249C1540.27 376.125 1561.21 399.381 1583.09 420.878C1626.84 463.882 1674.21 499.763 1728.54 511.459L1728.22 512.926C1673.46 501.138 1625.84 465.007 1582.03 421.947C1560.12 400.412 1539.15 377.123 1518.7 354.249L1517.59 353.003L1514.62 349.687L1514.62 349.685L1514.62 349.682L1514.62 349.679L1514.61 349.677C1495.59 328.384 1477 307.582 1458.5 289.003C1418.81 249.158 1379.68 219.721 1337.73 217.547ZM1207.34 364.886C1258.8 295.016 1303.82 270.01 1345.7 272.181C1387.66 274.355 1426.79 303.792 1466.47 343.637C1484.97 362.216 1503.56 383.018 1522.59 404.312L1522.59 404.315L1522.59 404.318L1522.6 404.32L1524.74 406.716L1526.67 408.882C1547.12 431.756 1568.1 455.046 1590.01 476.581C1633.82 519.641 1681.44 555.771 1736.2 567.559L1736.51 566.093C1682.18 554.397 1634.81 518.516 1591.06 475.511C1569.19 454.014 1548.24 430.759 1527.79 407.883C1526.77 406.74 1525.75 405.599 1524.73 404.459L1523.86 403.485L1523.7 403.308L1523.7 403.299L1523.69 403.293C1504.67 382.012 1486.06 361.184 1467.53 342.578C1427.84 302.727 1388.36 272.889 1345.78 270.683C1303.14 268.473 1257.7 293.983 1206.13 363.997C1154.66 433.87 1103.13 479.157 1050.16 507.47C997.204 535.782 942.772 547.146 885.475 549.11C828.165 551.075 768.005 543.636 703.583 534.349C693.48 532.892 683.273 531.39 672.957 529.872C617.501 521.713 558.875 513.087 496.29 508.542C377.339 499.905 251.586 552.686 142.781 622.069C33.9593 691.462 -58.0179 777.533 -109.448 835.645L-108.325 836.639C-56.9742 778.617 34.8988 692.642 143.587 623.333C252.293 554.014 377.71 501.436 496.181 510.038C558.706 514.578 617.271 523.195 672.726 531.355C683.046 532.873 693.259 534.376 703.369 535.833C767.79 545.121 828.068 552.579 885.527 550.61C942.998 548.639 997.666 537.236 1050.87 508.793C1104.07 480.352 1155.77 434.897 1207.34 364.886ZM1353.68 326.814C1311.79 324.644 1266.78 349.649 1215.31 419.52C1163.74 489.53 1112.05 534.985 1058.85 563.427C1005.64 591.87 950.972 603.273 893.5 605.243C836.042 607.213 775.764 599.754 711.343 590.467C701.232 589.009 691.02 587.507 680.7 585.988C625.245 577.829 566.68 569.212 504.155 564.672C385.684 556.07 260.267 608.647 151.561 677.967C42.8726 747.276 -49.0004 833.25 -100.351 891.272L-101.475 890.278C-50.0441 832.166 41.9331 746.096 150.755 676.702C259.559 607.32 385.313 554.539 504.264 563.176C566.849 567.72 625.475 576.346 680.93 584.506C691.247 586.024 701.454 587.526 711.557 588.982C775.979 598.27 836.138 605.709 893.449 603.744C950.746 601.78 1005.18 590.415 1058.14 562.104C1111.1 533.791 1162.64 488.504 1214.11 418.63C1265.68 348.616 1311.11 323.107 1353.75 325.316C1396.33 327.522 1435.82 357.36 1475.51 397.211C1494.04 415.817 1512.65 436.645 1531.66 457.927L1531.67 457.933L1531.68 457.941C1533.04 459.464 1534.4 460.989 1535.77 462.516C1556.22 485.392 1577.16 508.648 1599.03 530.145C1642.79 573.149 1690.15 609.03 1744.49 620.726L1744.17 622.193C1689.41 610.405 1641.79 574.274 1597.98 531.214C1576.07 509.679 1555.1 486.39 1534.65 463.516C1533.29 461.993 1531.93 460.472 1530.57 458.954L1530.57 458.951L1530.56 458.948C1511.54 437.654 1492.95 416.85 1474.44 398.27C1434.76 358.425 1395.63 328.988 1353.68 326.814Z" fill="url(#paint0_linear)"/>
<path opacity="0.5" fill-rule="evenodd" clip-rule="evenodd" d="M1214.44 476.738C1265.91 406.868 1310.92 381.862 1352.81 384.032C1394.76 386.206 1433.89 415.643 1473.57 455.488C1492.08 474.069 1510.67 494.874 1529.7 516.17L1529.7 516.172C1531.06 517.691 1532.42 519.211 1533.78 520.734C1554.23 543.608 1575.2 566.897 1597.11 588.433C1640.92 631.492 1688.54 667.623 1743.3 679.411L1743.62 677.945C1689.28 666.248 1641.92 630.367 1598.16 587.363C1576.29 565.866 1555.35 542.61 1534.9 519.734C1533.53 518.208 1532.17 516.682 1530.81 515.16L1530.8 515.151C1511.78 493.868 1493.17 473.037 1474.64 454.43C1434.95 414.579 1395.46 384.741 1352.89 382.534C1310.24 380.325 1264.81 405.835 1213.24 475.848C1161.77 545.722 1110.23 591.009 1057.27 619.322C1004.31 647.634 949.877 658.998 892.58 660.962C835.269 662.927 775.109 655.488 710.687 646.201C700.585 644.744 690.378 643.242 680.061 641.724C624.606 633.565 565.98 624.938 503.395 620.394C384.444 611.757 258.69 664.538 149.886 733.92C41.0639 803.314 -50.9133 889.385 -102.344 947.496L-101.221 948.49C-49.8697 890.469 42.0034 804.494 150.692 735.185C259.398 665.866 384.815 613.288 503.286 621.89C565.811 626.43 624.375 635.047 679.831 643.207L679.836 643.207C690.154 644.725 700.365 646.228 710.473 647.685C774.894 656.973 835.173 664.431 892.631 662.461C950.103 660.491 1004.77 649.088 1057.98 620.645C1111.18 592.204 1162.88 546.749 1214.44 476.738ZM1222.42 531.371C1273.88 461.501 1318.9 436.496 1360.78 438.666C1402.74 440.84 1441.87 470.277 1481.55 510.122C1500.05 528.699 1518.64 549.5 1537.66 570.792L1537.66 570.795L1537.67 570.797L1537.67 570.8L1537.67 570.803L1537.67 570.806L1539.45 572.788L1541.75 575.368C1562.2 598.241 1583.18 621.531 1605.09 643.066C1648.89 686.126 1696.52 722.256 1751.28 734.044L1751.59 732.578C1697.26 720.882 1649.89 685.001 1606.14 641.996C1584.27 620.499 1563.32 597.244 1542.87 574.368C1541.5 572.841 1540.14 571.316 1538.78 569.793L1538.77 569.785L1538.77 569.779C1519.75 548.497 1501.14 527.669 1482.61 509.063C1442.92 469.212 1403.43 439.374 1360.86 437.168C1318.21 434.958 1272.78 460.468 1221.21 530.482C1169.74 600.355 1118.21 645.642 1065.24 673.955C1012.28 702.267 957.851 713.631 900.554 715.596C843.243 717.56 783.083 710.121 718.661 700.834C708.559 699.377 698.352 697.876 688.035 696.358C632.58 688.198 573.953 679.572 511.368 675.027C392.417 666.39 266.664 719.171 157.859 788.554C49.0377 857.947 -42.9395 944.018 -94.3701 1002.13L-93.2469 1003.12C-41.8959 945.102 49.9771 859.127 158.666 789.819C267.372 720.499 392.788 667.921 511.26 676.523C573.785 681.063 632.349 689.68 687.805 697.84L687.809 697.841C698.128 699.359 708.339 700.861 718.447 702.319C782.868 711.606 843.147 719.065 900.605 717.095C958.077 715.124 1012.74 703.721 1065.95 675.278C1119.15 646.837 1170.85 601.382 1222.42 531.371ZM1230.39 586.005C1281.86 516.134 1326.87 491.129 1368.75 493.299C1410.71 495.473 1449.84 524.91 1489.52 564.755C1508.03 583.334 1526.61 604.138 1545.64 625.431L1545.64 625.433L1545.64 625.434L1545.65 625.437L1545.65 625.439L1547.26 627.244L1549.73 630.001C1570.17 652.874 1591.15 676.164 1613.06 697.699C1656.87 740.759 1704.49 776.889 1759.25 788.678L1759.57 787.211C1705.23 775.515 1657.86 739.634 1614.11 696.63C1592.24 675.133 1571.29 651.877 1550.84 629.001L1548.35 626.214L1546.76 624.426L1546.75 624.418L1546.74 624.412C1527.73 603.131 1509.12 582.303 1490.58 563.696C1450.9 523.845 1411.41 494.007 1368.83 491.801C1326.19 489.591 1280.75 515.101 1229.18 585.115C1177.72 654.989 1126.18 700.275 1073.22 728.589C1020.26 756.9 965.824 768.264 908.527 770.229C851.216 772.194 791.057 764.755 726.635 755.467C716.532 754.011 706.325 752.509 696.008 750.991C640.553 742.831 581.927 734.205 519.342 729.661C400.391 721.024 274.637 773.805 165.833 843.187C57.0111 912.581 -34.966 998.651 -86.3966 1056.76L-85.2734 1057.76C-33.9224 999.735 57.9506 913.761 166.639 844.452C275.345 775.132 400.762 722.554 519.233 731.157C581.758 735.697 640.323 744.314 695.778 752.473C706.098 753.992 716.31 755.494 726.421 756.952C790.842 766.239 851.12 773.698 908.579 771.728C966.05 769.758 1020.72 758.354 1073.92 729.912C1127.13 701.47 1178.82 656.015 1230.39 586.005ZM1376.73 547.933C1334.84 545.762 1289.83 570.768 1238.37 640.638C1186.8 710.649 1135.1 756.104 1081.9 784.545C1028.69 812.988 974.024 824.391 916.553 826.361C859.094 828.331 798.816 820.873 734.395 811.585C724.296 810.129 714.095 808.629 703.787 807.112L703.752 807.107C648.297 798.947 589.732 790.33 527.207 785.79C408.736 777.188 283.319 829.766 174.613 899.085C65.9247 968.394 -25.9483 1054.37 -77.2993 1112.39L-78.4226 1111.4C-26.992 1053.28 64.9852 967.214 173.807 897.821C282.611 828.438 408.365 775.657 527.316 784.294C589.901 788.838 648.527 797.465 703.982 805.624L703.983 805.624C714.299 807.142 724.506 808.644 734.609 810.101C799.031 819.388 859.19 826.827 916.501 824.862C973.798 822.898 1028.23 811.534 1081.19 783.222C1134.15 754.909 1185.69 709.622 1237.16 639.749C1288.73 569.735 1334.16 544.225 1376.81 546.435C1419.38 548.641 1458.87 578.479 1498.56 618.33C1517.09 636.936 1535.7 657.764 1554.72 679.046L1554.72 679.052L1554.73 679.06L1555.76 680.219L1558.82 683.635C1579.27 706.51 1600.21 729.766 1622.09 751.263C1665.84 794.268 1713.21 830.148 1767.54 841.845L1767.22 843.311C1712.46 831.523 1664.84 795.392 1621.03 752.333C1599.12 730.798 1578.15 707.508 1557.7 684.634L1556.59 683.388L1553.62 680.072L1553.62 680.07L1553.62 680.067L1553.62 680.065L1553.61 680.062C1534.59 658.769 1516 637.967 1497.5 619.388C1457.81 579.543 1418.68 550.106 1376.73 547.933ZM1246.34 695.272C1297.8 625.401 1342.82 600.396 1384.7 602.566C1426.66 604.74 1465.79 634.177 1505.47 674.022C1523.97 692.601 1542.56 713.404 1561.59 734.697L1561.59 734.7L1561.59 734.703L1561.6 734.706L1563.74 737.102L1565.67 739.268C1586.12 762.141 1607.1 785.431 1629.01 806.966C1672.82 850.026 1720.44 886.156 1775.2 897.944L1775.51 896.478C1721.18 884.782 1673.81 848.901 1630.06 805.896C1608.19 784.4 1587.24 761.144 1566.79 738.268C1565.77 737.126 1564.75 735.984 1563.73 734.844L1562.86 733.87L1562.7 733.693L1562.7 733.684L1562.69 733.679C1543.67 712.397 1525.06 691.569 1506.53 672.963C1466.84 633.112 1427.36 603.274 1384.78 601.068C1342.14 598.858 1296.7 624.368 1245.13 694.382C1193.66 764.256 1142.13 809.542 1089.16 837.856C1036.2 866.167 981.772 877.531 924.475 879.496C867.165 881.461 807.005 874.022 742.583 864.734C732.48 863.278 722.273 861.776 711.957 860.258C656.501 852.098 597.875 843.472 535.29 838.927C416.339 830.29 290.586 883.071 181.781 952.454C72.9593 1021.85 -19.0179 1107.92 -70.4485 1166.03L-69.3252 1167.02C-17.9742 1109 73.8988 1023.03 182.587 953.719C291.293 884.399 416.71 831.821 535.181 840.424C597.706 844.963 656.271 853.58 711.726 861.74C722.046 863.259 732.259 864.761 742.369 866.219C806.79 875.506 867.068 882.965 924.527 880.995C981.998 879.024 1036.67 867.621 1089.87 839.178C1143.07 810.737 1194.77 765.282 1246.34 695.272ZM1392.68 657.199C1350.79 655.029 1305.78 680.035 1254.31 749.905C1202.74 819.916 1151.05 865.371 1097.85 893.812C1044.64 922.255 989.972 933.658 932.5 935.628C875.042 937.598 814.764 930.14 750.343 920.852C740.232 919.395 730.02 917.892 719.7 916.374C664.245 908.214 605.68 899.597 543.155 895.057C424.684 886.455 299.267 939.033 190.561 1008.35C81.8726 1077.66 -10.0004 1163.64 -61.3515 1221.66L-62.4747 1220.66C-11.0441 1162.55 80.9331 1076.48 189.755 1007.09C298.559 937.705 424.313 884.924 543.264 893.561C605.849 898.105 664.475 906.732 719.93 914.891C730.247 916.409 740.454 917.911 750.557 919.368C814.979 928.655 875.138 936.094 932.449 934.129C989.746 932.165 1044.18 920.801 1097.14 892.489C1150.1 864.176 1201.64 818.889 1253.11 749.015C1304.68 679.002 1350.11 653.492 1392.75 655.701C1435.33 657.908 1474.82 687.746 1514.51 727.597C1533.04 746.203 1551.65 767.031 1570.66 788.312L1570.67 788.318L1570.68 788.327C1572.04 789.849 1573.4 791.375 1574.77 792.901C1595.22 815.777 1616.16 839.033 1638.03 860.53C1681.79 903.534 1729.15 939.415 1783.49 951.112L1783.17 952.578C1728.41 940.79 1680.79 904.659 1636.98 861.6C1615.07 840.064 1594.1 816.775 1573.65 793.901C1572.29 792.378 1570.93 790.858 1569.57 789.339L1569.57 789.336L1569.56 789.333C1550.54 768.039 1531.95 747.235 1513.44 728.655C1473.76 688.81 1434.63 659.373 1392.68 657.199Z" fill="url(#paint1_linear)"/>
<defs>
<linearGradient id="paint0_linear" x1="56.2353" y1="252.137" x2="1501.42" y2="256.508" gradientUnits="userSpaceOnUse">
<stop stop-color="#298A91"/>
<stop offset="0.453125" stop-color="#1838EB"/>
<stop offset="1" stop-color="#298A91"/>
</linearGradient>
<linearGradient id="paint1_linear" x1="95.2353" y1="582.522" x2="1540.42" y2="586.893" gradientUnits="userSpaceOnUse">
<stop stop-color="#298A91"/>
<stop offset="0.453125" stop-color="#1838EB"/>
<stop offset="1" stop-color="#298A91"/>
</linearGradient>
</defs>
</svg>
